# xmcd CD database file
#
# Track frame offsets:
#	150
#	23671
#	47070
#	73251
#	89309
#	103557
#	128051
#	145077
#	159002
#	178561
#	191978
#	211869
#	233765
#	252602
#	271926
#
# Disc length: 3905 seconds
#
# Revision: 0
# Processed by: cddbd v1.5.2PL0 Copyright (c) Steve Scherf et al.
# Submitted via: CDex 1.70beta2
#
DISCID=cd0f3f0f
DTITLE=Eliane - sings Bossa and Saudade
DYEAR=2009
DGENRE=Jazz
TTITLE0=So Nice
TTITLE1=The Song Is You
TTITLE2=A Volta
TTITLE3=Dreamer
TTITLE4=Chiclete Com Banana
TTITLE5=Djavan Medley: Fato Consumado - Dobrado
TTITLE6=Photograph
TTITLE7=A Vizinha Do Labo
TTITLE8=Manhattan
TTITLE9=Doralice
TTITLE10=Tropicalia
TTITLE11=Perere
TTITLE12=Call Me
TTITLE13=Segredos
TTITLE14=Kissed By Nature (Bossacucanova Remix)
EXTD=YEAR: 2009
EXTT0=
EXTT1=
EXTT2=
EXTT3=
EXTT4=
EXTT5=
EXTT6=
EXTT7=
EXTT8=
EXTT9=
EXTT10=
EXTT11=
EXTT12=
EXTT13=
EXTT14=
PLAYORDER=
